%TF.GenerationSoftware,KiCad,Pcbnew,9.0.7*%
%TF.CreationDate,2026-09-16T21:11:50-06:00*%
%TF.ProjectId,PneuFlex,506e6575-466c-4657-982e-6b696361645f,rev?*%
%TF.SameCoordinates,Original*%
%TF.FileFunction,Soldermask,Bot*%
%TF.FilePolarity,Negative*%
%FSLAX46Y46*%
G04 Gerber Fmt 4.6, Leading zero omitted, Abs format (unit mm)*
G04 Created by KiCad (PCBNEW 9.0.7) date 2026-09-16 21:11:50*
%MOMM*%
%LPD*%
G01*
G04 APERTURE LIST*
G04 Aperture macros list*
%AMRoundRect*
0 Rectangle with rounded corners*
0 $1 Rounding radius*
0 $2 $3 $4 $5 $6 $7 $8 $9 X,Y pos of 4 corners*
0 Add a 4 corners polygon primitive as box body*
4,1,4,$2,$3,$4,$5,$6,$7,$8,$9,$2,$3,0*
0 Add four circle primitives for the rounded corners*
1,1,$1+$1,$2,$3*
1,1,$1+$1,$4,$5*
1,1,$1+$1,$6,$7*
1,1,$1+$1,$8,$9*
0 Add four rect primitives between the rounded corners*
20,1,$1+$1,$2,$3,$4,$5,0*
20,1,$1+$1,$4,$5,$6,$7,0*
20,1,$1+$1,$6,$7,$8,$9,0*
20,1,$1+$1,$8,$9,$2,$3,0*%
G04 Aperture macros list end*
%ADD10R,2.000000X1.200000*%
%ADD11O,2.000000X1.200000*%
%ADD12RoundRect,0.249999X0.850001X0.850001X-0.850001X0.850001X-0.850001X-0.850001X0.850001X-0.850001X0*%
%ADD13C,2.200000*%
%ADD14C,1.600000*%
%ADD15R,1.700000X1.700000*%
%ADD16C,1.700000*%
%ADD17R,2.000000X1.905000*%
%ADD18O,2.000000X1.905000*%
%ADD19RoundRect,0.250000X-1.050000X-1.050000X1.050000X-1.050000X1.050000X1.050000X-1.050000X1.050000X0*%
%ADD20C,2.600000*%
%ADD21RoundRect,0.250000X0.550000X0.550000X-0.550000X0.550000X-0.550000X-0.550000X0.550000X-0.550000X0*%
%ADD22RoundRect,0.250000X-0.350000X-0.625000X0.350000X-0.625000X0.350000X0.625000X-0.350000X0.625000X0*%
%ADD23O,1.200000X1.750000*%
%ADD24O,3.500000X2.200000*%
%ADD25R,2.500000X1.500000*%
%ADD26O,2.500000X1.500000*%
%ADD27R,1.800000X1.800000*%
%ADD28C,1.800000*%
G04 APERTURE END LIST*
D10*
%TO.C,U1*%
X109455000Y-67298120D03*
D11*
X109455000Y-69838120D03*
X109455000Y-72378120D03*
X109455000Y-74918120D03*
X109455000Y-77458120D03*
X109455000Y-79998120D03*
X109455000Y-82538120D03*
X109455000Y-85078120D03*
X109455000Y-87618120D03*
X109455000Y-90158120D03*
X109455000Y-92698120D03*
X109455000Y-95238120D03*
X109455000Y-97778120D03*
X109455000Y-100318120D03*
X109455000Y-102858120D03*
X109455000Y-105398120D03*
X109455000Y-107938120D03*
X109455000Y-110478120D03*
X109455000Y-113018120D03*
X134851320Y-113015400D03*
X134851320Y-110475400D03*
X134855000Y-107938120D03*
X134855000Y-105398120D03*
X134855000Y-102858120D03*
X134855000Y-100318120D03*
X134855000Y-97778120D03*
X134855000Y-95238120D03*
X134855000Y-92698120D03*
X134855000Y-90158120D03*
X134855000Y-87618120D03*
X134855000Y-85078120D03*
X134855000Y-82538120D03*
X134855000Y-79998120D03*
X134855000Y-77458120D03*
X134855000Y-74918120D03*
X134855000Y-72378120D03*
X134855000Y-69838120D03*
X134855000Y-67298120D03*
%TD*%
D12*
%TO.C,D2*%
X102580000Y-94000000D03*
D13*
X92420000Y-94000000D03*
%TD*%
D14*
%TO.C,F1*%
X104250000Y-112420000D03*
X104250000Y-122580000D03*
%TD*%
%TO.C,R2*%
X83670000Y-70000000D03*
X93830000Y-70000000D03*
%TD*%
%TO.C,R5*%
X155830000Y-68000000D03*
X145670000Y-68000000D03*
%TD*%
D15*
%TO.C,J1*%
X146670000Y-61250000D03*
D16*
X149210000Y-61250000D03*
X151750000Y-61250000D03*
X154290000Y-61250000D03*
%TD*%
D15*
%TO.C,J2*%
X78500000Y-88540000D03*
D16*
X78500000Y-86000000D03*
%TD*%
D15*
%TO.C,J8*%
X86500000Y-118690000D03*
D16*
X86500000Y-121230000D03*
X86500000Y-123770000D03*
X86500000Y-126310000D03*
%TD*%
D17*
%TO.C,Q1*%
X86750000Y-88580000D03*
D18*
X86750000Y-86040000D03*
X86750000Y-83500000D03*
%TD*%
D19*
%TO.C,J3*%
X112000000Y-122500000D03*
D20*
X117000000Y-122500000D03*
%TD*%
D21*
%TO.C,C4*%
X102932379Y-70750000D03*
D14*
X100432379Y-70750000D03*
%TD*%
D22*
%TO.C,J7*%
X78500000Y-124750000D03*
D23*
X80500000Y-124750000D03*
%TD*%
D14*
%TO.C,C1*%
X103000000Y-64500000D03*
X100500000Y-64500000D03*
%TD*%
%TO.C,C5*%
X150000000Y-107000000D03*
X150000000Y-104500000D03*
%TD*%
D19*
%TO.C,J6*%
X92500000Y-122500000D03*
D20*
X97500000Y-122500000D03*
%TD*%
D15*
%TO.C,R1*%
X78500000Y-62225000D03*
D16*
X78500000Y-64765000D03*
%TD*%
D14*
%TO.C,R3*%
X102580000Y-89750000D03*
X92420000Y-89750000D03*
%TD*%
D12*
%TO.C,D1*%
X102580000Y-86000000D03*
D13*
X92420000Y-86000000D03*
%TD*%
D14*
%TO.C,C2*%
X87250000Y-78000000D03*
X84750000Y-78000000D03*
%TD*%
D24*
%TO.C,SW1*%
X79250000Y-117600000D03*
X79250000Y-109400000D03*
D25*
X79250000Y-115500000D03*
D26*
X79250000Y-113500000D03*
X79250000Y-111500000D03*
%TD*%
D27*
%TO.C,LED1*%
X145730000Y-75500000D03*
D28*
X148270000Y-75500000D03*
%TD*%
D14*
%TO.C,C3*%
X93500000Y-103250000D03*
X91000000Y-103250000D03*
%TD*%
%TO.C,R6*%
X145750000Y-97420000D03*
X145750000Y-107580000D03*
%TD*%
%TO.C,R4*%
X102580000Y-98500000D03*
X92420000Y-98500000D03*
%TD*%
D17*
%TO.C,Q2*%
X86750000Y-100080000D03*
D18*
X86750000Y-97540000D03*
X86750000Y-95000000D03*
%TD*%
D15*
%TO.C,J4*%
X78500000Y-94975000D03*
D16*
X78500000Y-97515000D03*
%TD*%
M02*
