M48
; DRILL file {KiCad 9.0.7} date 2026-09-16T21:11:55-0600
; FORMAT={-:-/ absolute / metric / decimal}
; #@! TF.CreationDate,2026-09-16T21:11:55-06:00
; #@! TF.GenerationSoftware,Kicad,Pcbnew,9.0.7
; #@! TF.FileFunction,Plated,1,2,PTH
FMAT,2
METRIC
; #@! TA.AperFunction,Plated,PTH,ViaDrill
T1C0.400
; #@! TA.AperFunction,Plated,PTH,ComponentDrill
T2C0.750
; #@! TA.AperFunction,Plated,PTH,ComponentDrill
T3C0.800
; #@! TA.AperFunction,Plated,PTH,ComponentDrill
T4C0.900
; #@! TA.AperFunction,Plated,PTH,ComponentDrill
T5C1.000
; #@! TA.AperFunction,Plated,PTH,ComponentDrill
T6C1.100
; #@! TA.AperFunction,Plated,PTH,ComponentDrill
T7C1.300
; #@! TA.AperFunction,Plated,PTH,ComponentDrill
T8C1.500
%
G90
G05
T1
X102.0Y-115.5
X105.25Y-87.75
X105.25Y-91.5
X105.25Y-94.75
X105.75Y-101.25
X106.5Y-115.5
X136.75Y-70.0
X139.5Y-66.5
X139.5Y-72.0
X142.25Y-69.0
X142.25Y-84.25
X142.25Y-89.5
X143.25Y-84.25
X144.75Y-89.25
X145.75Y-94.75
X146.5Y-92.25
X146.5Y-92.25
T2
X78.5Y-124.75
X80.5Y-124.75
T3
X79.25Y-111.5
X79.25Y-113.5
X79.25Y-115.5
X83.67Y-70.0
X84.75Y-78.0
X87.25Y-78.0
X91.0Y-103.25
X92.42Y-89.75
X92.42Y-98.5
X93.5Y-103.25
X93.83Y-70.0
X100.432Y-70.75
X100.5Y-64.5
X102.58Y-89.75
X102.58Y-98.5
X102.932Y-70.75
X103.0Y-64.5
X104.25Y-112.42
X104.25Y-122.58
X109.455Y-67.298
X109.455Y-69.838
X109.455Y-72.378
X109.455Y-74.918
X109.455Y-77.458
X109.455Y-79.998
X109.455Y-82.538
X109.455Y-85.078
X109.455Y-87.618
X109.455Y-90.158
X109.455Y-92.698
X109.455Y-95.238
X109.455Y-97.778
X109.455Y-100.318
X109.455Y-102.858
X109.455Y-105.398
X109.455Y-107.938
X109.455Y-110.478
X109.455Y-113.018
X134.851Y-110.475
X134.851Y-113.015
X134.855Y-67.298
X134.855Y-69.838
X134.855Y-72.378
X134.855Y-74.918
X134.855Y-77.458
X134.855Y-79.998
X134.855Y-82.538
X134.855Y-85.078
X134.855Y-87.618
X134.855Y-90.158
X134.855Y-92.698
X134.855Y-95.238
X134.855Y-97.778
X134.855Y-100.318
X134.855Y-102.858
X134.855Y-105.398
X134.855Y-107.938
X145.67Y-68.0
X145.75Y-97.42
X145.75Y-107.58
X150.0Y-104.5
X150.0Y-107.0
X155.83Y-68.0
T4
X145.73Y-75.5
X148.27Y-75.5
T5
X78.5Y-62.225
X78.5Y-64.765
X78.5Y-86.0
X78.5Y-88.54
X78.5Y-94.975
X78.5Y-97.515
X86.5Y-118.69
X86.5Y-121.23
X86.5Y-123.77
X86.5Y-126.31
X146.67Y-61.25
X149.21Y-61.25
X151.75Y-61.25
X154.29Y-61.25
T6
X86.75Y-83.5
X86.75Y-86.04
X86.75Y-88.58
X86.75Y-95.0
X86.75Y-97.54
X86.75Y-100.08
X92.42Y-86.0
X92.42Y-94.0
X102.58Y-86.0
X102.58Y-94.0
T7
X92.5Y-122.5
X97.5Y-122.5
X112.0Y-122.5
X117.0Y-122.5
T8
X79.25Y-109.4
X79.25Y-117.6
M30
